{"title":"Omen II (1978)","uid":6993786,"size":722473610,"categoryP":"video","categoryS":"movies","magnet":"?xt=urn:btih:8a364cf3e78ec7d320a17295cd72cbb477130c80&amp;dn=Omen+II+%281978%29&amp;tr=udp%3A%2F%2Ftracker.openbittorrent.com%3A80&amp;tr=udp%3A%2F%2Fopen.demonii.com%3A1337&amp;tr=udp%3A%2F%2Ftracker.coppersurfer.tk%3A6969&amp;tr=udp%3A%2F%2Fexodus.desync.com%3A6969","seeders":0,"leechers":1,"uploader":"xiliaeuro","files":2,"time":1327792722,"description":"Damien: Omen II (1978)\n\n107 min  -  Drama | Horror | Thriller   -  9 June 1978 (USA)\n\nRatings: 6.1/10\n\nDamien the Antichrist, now age 13, finally learns of his destiny under the guidance of an unholy disciple of Satan. Meanwhile dark mystical forces begin to eliminate all those who suspect the child's true identity. \n\nStars:\nWilliam Holden, Lee Grant and Jonathan Scott-Taylor \n\n\nFormat                         : AVI\nFormat/Info                    : Audio Video Interleave\nFile size                      : 689 MiB\nDuration                       : 1h 42mn\nOverall bit rate               : 940 Kbps\n\nVideo\nID                             : 0\nFormat                         : MPEG-4 Visual\nFormat settings, BVOP          : Yes\nFormat settings, QPel          : No\nFormat settings, GMC           : No warppoints\nFormat settings, Matrix        : Default (H.263)\nCodec ID                       : DX50\nCodec ID/Hint                  : DivX 5\nDuration                       : 1h 42mn\nBit rate                       : 799 Kbps\nWidth                          : 640 pixels\nHeight                         : 368 pixels\nDisplay aspect ratio           : 16:9\nFrame rate                     : 25.000 fps\nColor space                    : YUV\nChroma subsampling             : 4:2:0\nBit depth                      : 8 bits\nScan type                      : Progressive\nCompression mode               : Lossy\nBits/(Pixel*Frame)             : 0.136\nStream size                    : 586 MiB (85%)\nTitle                          : NeoVideo92CF\nWriting library                : DivX 5.0.2 (UTC 2002-05-16)\n\nAudio\nID                             : 1\nFormat                         : MPEG Audio\nFormat version                 : Version 1\nFormat profile                 : Layer 3\nMode                           : Joint stereo\nMode extension                 : MS Stereo\nCodec ID                       : 55\nCodec ID/Hint                  : MP3\nDuration                       : 1h 42mn\nBit rate mode                  : Constant\nBit rate                       : 128 Kbps\nChannel(s)                     : 2 channels\nSampling rate                  : 48.0 KHz\nCompression mode               : Lossy\nStream size                    : 93.8 MiB (14%)\nAlignment                      : Split accross interleaves\nInterleave, duration           : 24 ms (0.60 video frame)\nTitle                          : NeoSound92CF0\n\n","torrent":{"xt":"urn:btih:8a364cf3e78ec7d320a17295cd72cbb477130c80","amp;dn":"Omen+II+%281978%29","amp;tr":["udp%3A%2F%2Ftracker.openbittorrent.com%3A80","udp%3A%2F%2Fopen.demonii.com%3A1337","udp%3A%2F%2Ftracker.coppersurfer.tk%3A6969","udp%3A%2F%2Fexodus.desync.com%3A6969"],"infoHash":"8a364cf3e78ec7d320a17295cd72cbb477130c80","infoHashBuffer":{"type":"Buffer","data":[138,54,76,243,231,142,199,211,32,161,114,149,205,114,203,180,119,19,12,128]},"announce":[],"urlList":[]}}